HIERARCHY
ROOT Hips
{
  OFFSET -331.093 83.8371 -317.828
  CHANNELS 6 Xposition Yposition Zposition Zrotation Xrotation Yrotation
  JOINT LeftUpLeg
  {
    OFFSET 8.64259 1.95398 -2.38835
    CHANNELS 3 Zrotation Xrotation Yrotation
    JOINT LeftLeg
    {
      OFFSET 43.7702 0 0
      CHANNELS 3 Zrotation Xrotation Yrotation
      JOINT LeftFoot
      {
        OFFSET 40.6238 0 0
        CHANNELS 3 Zrotation Xrotation Yrotation
        JOINT LeftToeBase
        {
          OFFSET 12.7242 0 0
          CHANNELS 3 Zrotation Xrotation Yrotation
          End Site
          {
            OFFSET 0 0 0
          }
        }
      }
    }
  }
  JOINT RightUpLeg
  {
    OFFSET -8.2249 1.95398 -2.59336
    CHANNELS 3 Zrotation Xrotation Yrotation
    JOINT RightLeg
    {
      OFFSET 43.5653 0 0
      CHANNELS 3 Zrotation Xrotation Yrotation
      JOINT RightFoot
      {
        OFFSET 40.6238 0 0
        CHANNELS 3 Zrotation Xrotation Yrotation
        JOINT RightToeBase
        {
          OFFSET 12.7242 0 0
          CHANNELS 3 Zrotation Xrotation Yrotation
          End Site
          {
            OFFSET 0 0 0
          }
        }
      }
    }
  }
  JOINT Spine
  {
    OFFSET 0.165834 0.87714 6.61349
    CHANNELS 3 Zrotation Xrotation Yrotation
    JOINT Spine1
    {
      OFFSET 7.38963 1.71661e-005 0
      CHANNELS 3 Zrotation Xrotation Yrotation
      JOINT Spine2
      {
        OFFSET 11.9445 1.14441e-005 0
        CHANNELS 3 Zrotation Xrotation Yrotation
        JOINT Spine3
        {
          OFFSET 14.7254 4.19617e-005 0
          CHANNELS 3 Zrotation Xrotation Yrotation
          JOINT Spine4
          {
            OFFSET 10.9679 0 0
            CHANNELS 3 Zrotation Xrotation Yrotation
            JOINT RightShoulder
            {
              OFFSET 2.46616 -1.6653 3.69651
              CHANNELS 3 Zrotation Xrotation Yrotation
              JOINT RightArm
              {
                OFFSET 13.0012 0 0
                CHANNELS 3 Zrotation Xrotation Yrotation
                JOINT RightForeArm
                {
                  OFFSET 28.7848 1.62311e-005 0
                  CHANNELS 3 Zrotation Xrotation Yrotation
                  JOINT RightHand
                  {
                    OFFSET 26.5688 1.62095e-005 0
                    CHANNELS 3 Zrotation Xrotation Yrotation
                    End Site
                    {
                      OFFSET 0 0 0
                    }
                  }
                }
              }
            }
            JOINT LeftShoulder
            {
              OFFSET 2.38034 -1.29275 -3.7523
              CHANNELS 3 Zrotation Xrotation Yrotation
              JOINT LeftArm
              {
                OFFSET 16.3182 6.07031e-005 0
                CHANNELS 3 Zrotation Xrotation Yrotation
                JOINT LeftForeArm
                {
                  OFFSET 27.0901 0 0
                  CHANNELS 3 Zrotation Xrotation Yrotation
                  JOINT LeftHand
                  {
                    OFFSET 24.5451 1.51738e-005 0
                    CHANNELS 3 Zrotation Xrotation Yrotation
                    End Site
                    {
                      OFFSET 0 0 0
                    }
                  }
                }
              }
            }
            JOINT Neck
            {
              OFFSET 5.0226 -0.0266342 0
              CHANNELS 3 Zrotation Xrotation Yrotation
              JOINT Head
              {
                OFFSET 6.69364 2.86102e-005 0
                CHANNELS 3 Zrotation Xrotation Yrotation
                End Site
                {
                  OFFSET 0 0 0
                }
              }
            }
          }
        }
      }
    }
  }
}
MOTION
Frames:	16
Frame Time:	0.0416667
41.3505 99.4127 -293.567 -62.6492 -86.204 -63.0114 -176.895 7.68285 86.3087 -14.6151 12.3016 -1.35323 65.3305 6.09247 6.92105 26.7895 -0.79144 3.48368 173.982 4.80048 92.5167 -14.4297 -10.4178 -2.28329 68.6479 -4.1267 -2.19116 27.2547 -0.185744 -2.02911 -0.104756 7.09257 -89.9455 12.6889 -0.182 0.130334 1.01793 -0.176085 0.138212 -21.5173 -0.212765 0.0696064 -1.50465 -0.212751 0.0696147 91.5473 -40.9775 -100.106 36.8857 -12.5971 5.36719 -9.51899 -13.8159 -39.4709 -6.58576 -0.272211 -2.6512 -95.515 -48.6716 70.6487 -25.3958 7.99428 3.27202 8.16599 16.2838 -36.119 10.2453 0.755225 3.26871 5.11904 0.39947 0.8993 -5.37813 0.186514 1.38822 
41.6036 99.2484 -292.938 -54.9504 -86.5595 -55.495 -176.887 7.72827 85.9351 -14.9947 13.2481 -1.59375 65.3184 7.16025 8.18851 27.7531 0.384207 5.43964 174.112 5.25657 92.3857 -15.7578 -9.45429 -2.61073 69.4485 -4.33493 -2.2941 28.0055 -0.1634 -1.58796 -0.125502 7.0556 -90.013 12.7627 -0.255405 0.00435298 1.0918 -0.254967 0.0155891 -21.4435 -0.244905 -0.0726062 -1.43089 -0.244897 -0.0725965 91.4836 -39.8309 -100.511 37.4738 -12.1443 6.68613 -9.02936 -11.9219 -40.5065 -5.77266 -0.322821 0.0570823 -96.5043 -49.5793 69.4769 -24.9658 8.18525 3.48054 7.60801 15.636 -35.9182 11.3169 0.902131 3.88435 3.85535 0.611066 2.87434 -3.35238 0.109083 -0.312514 
42.1114 98.991 -291.971 -52.672 -86.3623 -52.3467 -177.09 8.91419 86.1123 -18.41 11.8805 -0.920856 67.203 8.22375 8.07255 28.8481 1.10328 4.68597 175.172 5.0528 93.2633 -16.2708 -8.34918 -3.16453 69.9007 -4.79408 -2.49211 29.8111 -0.275535 -1.9676 -0.0439457 7.04129 -90.0939 12.7911 -0.132127 -0.171868 1.12015 -0.139571 -0.165895 -21.4149 -0.07437 -0.203636 -1.40228 -0.0743677 -0.203633 91.6762 -39.8718 -100.167 37.8677 -11.3727 7.4505 -12.1904 -11.8759 -44.6525 -3.74197 -0.320109 3.00584 -96.3986 -49.4588 69.5933 -25.3827 8.09543 3.46416 7.58305 15.5782 -35.7867 10.8865 0.762704 2.96369 3.80191 0.429092 2.14834 -3.01816 0.0536657 -0.0925711 
42.4598 98.2953 -290.715 -49.2494 -86.48 -48.6371 -177.244 9.99884 85.8101 -22.3939 11.5013 -0.583131 69.7262 10.0363 8.14427 29.9831 1.94018 4.3606 176.798 7.21522 93.9398 -21.5719 -4.23129 -3.84494 71.4704 -5.82198 -2.92107 33.9316 0.0285336 0.405276 -0.053511 7.06837 -90.132 12.7366 -0.169324 -0.243949 1.06567 -0.179889 -0.236272 -21.4693 -0.088183 -0.28356 -1.45665 -0.088177 -0.28356 91.5151 -39.9571 -100.424 37.5036 -11.3167 7.71116 -11.728 -11.872 -44.5737 -3.95947 -0.327616 2.91995 -96.4863 -49.6715 69.5328 -25.5851 8.45771 3.8214 8.25187 15.9751 -36.8174 10.9268 0.799909 3.26156 3.46323 0.330746 2.19341 -2.44354 -0.0457949 -0.0658867 
43.08 97.3851 -289.433 -52.1195 -85.9307 -52.3306 -177.679 10.6693 84.2714 -25.1249 11.7592 -0.599897 70.488 11.7981 10.609 30.1347 1.32142 1.33708 177.722 15.1364 93.1428 -36.4646 -3.23553 -4.10146 70.7323 -5.32136 -2.82292 42.3483 -1.93824 -7.04555 -0.0666158 7.15035 -89.9658 12.5732 -0.115935 0.0819389 0.902261 -0.112216 0.0869466 -21.6329 -0.135204 0.0433044 -1.62028 -0.135199 0.0433031 91.3188 -40.9166 -100.512 37.066 -10.7357 7.70821 -12.3257 -11.9716 -45.0444 -4.97996 -0.372856 2.0905 -95.9396 -49.1171 70.1599 -25.2914 11.5156 4.21789 8.5892 14.7148 -39.8662 11.5829 1.03092 4.77366 3.31286 0.495565 1.3951 -1.66856 0.254363 0.410554 
43.49 97.1618 -287.296 -48.126 -86.4031 -48.9145 -177.655 9.38503 83.4348 -25.588 9.94296 -0.631462 71.8507 11.2379 7.98555 31.5826 2.12779 0.177627 178.721 21.9836 92.6573 -45.1885 -3.12014 -4.17365 70.317 -4.9563 -2.73315 45.256 -2.85006 -9.53352 -0.26576 7.31106 -89.9479 12.2522 -0.503445 0.160215 0.581314 -0.495908 0.182212 -21.9545 -0.528319 0.00149632 -1.94188 -0.528324 0.00149759 91.1693 -40.5923 -100.852 36.9617 -10.7473 7.82672 -11.2626 -11.4613 -44.2246 -9.56545 -0.587082 1.37104 -96.7197 -49.7353 69.2118 -23.8973 13.8233 3.75478 9.02936 13.7724 -42.3178 10.8944 0.811173 3.36292 2.17746 0.879545 2.24089 -1.0723 0.515122 0.727375 
43.7406 97.1643 -284.439 -34.1304 -87.3389 -34.0001 -177.35 6.47826 84.4577 -24.003 12.1606 -0.523622 72.4111 12.4887 8.87792 31.6667 1.8349 -1.21346 178.441 26.4324 93.2983 -40.7619 -1.18357 -3.12657 68.6488 -4.04884 -2.28939 42.7028 -2.36772 -8.71569 -0.467464 7.45498 -90.0846 11.9649 -0.969302 -0.0637821 0.294321 -0.971177 -0.0210618 -22.2436 -0.90532 -0.352172 -2.23094 -0.905326 -0.352184 90.9575 -41.4131 -100.997 36.5564 -10.5646 9.63734 -10.9554 -9.9527 -45.8761 -5.92378 -0.448496 3.04204 -96.472 -49.309 69.4378 -23.9216 14.7494 2.53885 10.2416 12.7796 -45.3881 9.20588 0.758481 3.98159 1.46001 0.517505 1.28369 -1.92059 0.316899 1.58843 
43.8085 96.7106 -280.92 -27.2907 -86.9919 -26.5178 -176.708 4.33111 85.0898 -23.7493 12.8467 -0.623285 73.7388 14.1991 10.0662 33.6701 3.22228 -1.51296 178.206 30.2899 93.6789 -30.9017 -1.76506 -1.90464 65.4817 -2.72574 -1.56501 40.6894 -2.51787 -10.21 -0.541022 7.55642 -90.2 11.7599 -1.16988 -0.275109 0.089434 -1.18085 -0.223356 -22.4489 -1.03311 -0.614022 -2.43629 -1.03311 -0.614026 90.8846 -41.653 -101.056 36.623 -10.412 10.9089 -11.0083 -11.563 -43.5879 -5.55967 -0.396548 1.94778 -96.5925 -48.9788 69.1539 -22.3341 16.6433 0.248732 10.6112 11.2612 -47.9562 9.7871 0.885287 4.7733 0.971821 0.588217 0.78859 -0.850953 0.480458 1.73171 
43.6269 95.7524 -276.09 -23.3608 -86.8633 -22.7254 -176.509 1.35701 85.0333 -23.8482 14.1947 -0.462263 73.8516 15.7277 12.0258 37.045 5.63016 -1.75951 178.121 32.0565 93.5245 -20.6628 -0.92044 -1.25248 63.1105 -1.84689 -1.03241 39.4 -1.97931 -8.37395 -0.61685 7.66538 -90.2212 11.5418 -1.33063 -0.30404 -0.128475 -1.34272 -0.245174 -22.6678 -1.17772 -0.689931 -2.65519 -1.17772 -0.689933 90.7984 -42.3706 -101.013 36.1701 -10.1482 11.6113 -10.3865 -12.4183 -41.1976 -5.16053 -0.375848 1.93249 -96.4306 -48.5717 69.2606 -20.188 18.0144 -2.57488 10.0751 10.23 -48.2846 10.6874 0.92539 4.48799 0.510543 0.538455 0.42048 -0.27716 0.498469 1.88274 
43.1628 94.6795 -269.609 -11.4539 -87.027 -11.1557 -176.385 -0.902814 85.2728 -27.1314 17.4336 0.117315 70.8268 12.9563 12.3621 48.7135 14.6525 -1.42777 177.982 32.287 93.4214 -15.9623 0.0370246 -0.93656 62.1509 -1.69459 -0.921924 40.5777 -2.06145 -8.24344 -0.737964 7.70412 -90.2615 11.4634 -1.59037 -0.359413 -0.20657 -1.60465 -0.289054 -22.7478 -1.40882 -0.820857 -2.73513 -1.40882 -0.820859 90.4527 -43.2997 -101.345 35.0296 -9.501 12.842 -11.1223 -13.1315 -40.3133 -3.87875 -0.323516 2.7411 -96.5306 -48.5928 69.1194 -18.8518 18.3374 -5.04513 9.18346 11.4839 -45.4125 11.4208 1.00709 4.6831 0.0160515 0.895522 0.338858 0.00729934 0.875026 2.22728 
42.0338 93.5086 -261.146 5.56345 -86.5674 6.73981 -175.505 -4.97921 88.2022 -28.4107 23.1579 0.753184 68.092 11.8335 13.001 53.6493 20.0572 1.11378 178.211 34.9458 94.8012 -25.7885 1.43449 -0.900825 63.3836 -1.65151 -0.966176 38.7705 -1.73173 -7.62133 -0.893909 7.63336 -90.4457 11.6054 -1.98683 -0.679391 -0.064171 -2.0148 -0.591259 -22.6074 -1.69079 -1.24521 -2.59475 -1.69079 -1.24523 90.01 -44.1548 -101.846 33.3161 -10.3019 13.092 -9.58557 -13.9094 -38.1816 -4.88357 -0.37896 2.48214 -96.9441 -48.7771 68.57 -19.6944 16.621 -4.91229 7.8616 13.9102 -40.3761 12.2384 1.1356 5.17053 1.21874 1.11163 0.343245 -1.53204 1.05346 2.43194 
40.6298 93.1653 -251.41 -2.86615 -87.4104 -0.907269 -173.678 -6.21432 91.5789 -33.537 24.9547 0.916638 59.6179 0.859397 3.2607 60.006 29.5914 6.81848 177.467 34.3403 96.9886 -37.6483 1.78723 -0.764881 66.4582 -2.26927 -1.40724 33.3824 -1.16739 -6.73197 -0.93713 7.55181 -90.5732 11.7619 -2.13298 -0.917686 0.0924394 -2.1713 -0.822899 -22.4504 -1.75859 -1.51641 -2.43774 -1.75858 -1.51642 90.2783 -43.1253 -101.679 34.444 -9.84196 12.1768 -10.1892 -15.2702 -36.5147 -3.6649 -0.319641 3.33155 -97.4833 -48.8708 67.8073 -22.5524 14.3272 -1.06919 6.54839 15.8341 -35.9501 11.8189 1.27598 6.58674 1.0869 1.45553 0.79203 -2.94904 1.29608 2.70063 
39.103 93.2135 -242.585 -21.5413 -88.6727 -19.5648 -172.885 1.56822 94.5552 -50.1899 27.8311 1.33414 46.5106 -9.76853 -3.59901 33.8676 11.7209 23.0699 177.565 29.767 98.921 -43.0987 3.56989 -1.53557 72.5537 -4.42119 -2.51305 32.0444 -0.337163 -1.90468 -0.808933 7.54908 -90.494 11.7698 -1.84082 -0.790144 0.0999275 -1.87382 -0.708342 -22.441 -1.51826 -1.30692 -2.42832 -1.51827 -1.30694 90.4302 -42.6679 -101.549 35.2726 -10.1404 11.0059 -10.3097 -13.9751 -38.7977 -3.42484 -0.295125 2.72816 -96.9034 -48.6912 68.6011 -23.9609 15.1366 3.03048 6.58703 16.2809 -36.2915 10.9588 1.08681 5.67883 1.68894 0.965948 1.07797 -3.44644 0.764944 1.7349 
38.0031 94.8088 -234.377 -64.4352 -88.2116 -62.8821 -172.997 15.3293 93.6879 -63.5024 14.9438 1.56947 51.5173 -6.21493 -0.627559 35.9766 10.9657 15.7137 177.713 21.6706 99.1936 -39.6243 2.42746 -2.13555 75.325 -5.96873 -3.12684 32.7362 -0.332054 -1.71499 -0.407475 7.62993 -90.3554 11.6132 -0.977074 -0.607489 -0.0575319 -1.00285 -0.563905 -22.5936 -0.749329 -0.873058 -2.58096 -0.749333 -0.873062 90.391 -41.3969 -101.96 35.3114 -11.3885 7.20899 -11.5808 -13.6013 -43.2286 -4.97875 -0.377818 2.05138 -97.0987 -49.0015 68.4167 -24.4217 14.3183 5.22352 6.2058 14.6336 -37.0427 14.503 1.26102 4.71031 1.27786 -0.170811 1.48279 -1.44374 -0.384294 1.24648 
36.9988 96.68 -226.041 -80.0827 -86.7785 -80.8579 -173.973 23.1856 90.7876 -55.0692 15.8135 -0.0626553 56.7942 -1.49271 3.4378 39.6096 14.186 14.6736 177.428 12.0872 97.4812 -32.7033 -0.325801 -3.78803 75.9441 -6.2122 -3.21084 33.9288 -0.50967 -2.56745 0.00622379 7.59375 -90.0025 11.6861 0.0112686 -0.00596925 0.0151078 0.010993 -0.00646526 -22.5198 0.0125443 -0.0023087 -2.50719 0.0125402 -0.00231105 90.5176 -40.0197 -102.128 35.1742 -12.3919 4.62533 -12.9244 -11.4243 -49.1257 -7.90695 -0.551577 2.24884 -96.2414 -49.0434 69.6919 -26.5001 11.6809 7.59069 7.46693 14.6018 -38.4136 13.8847 1.16395 4.37776 0.423484 -0.538927 2.94824 -1.91076 -0.955849 -0.0404136 
36.749 97.0861 -218.12 -69.2588 -84.695 -70.9288 -176.244 27.3217 89.5958 -32.2642 10.9773 -1.18296 58.8513 -0.606559 0.597295 39.8474 18.0198 21.9468 176.266 5.64212 95.541 -27.886 -3.8758 -4.19635 77.0659 -6.98445 -3.4547 34.5489 -0.304221 -1.16406 0.336753 7.48617 -89.8049 11.9008 0.761508 0.306755 0.230038 0.774271 0.272933 -22.3062 0.634108 0.521446 -2.29354 0.634106 0.521436 90.8734 -38.865 -101.836 32.8447 -14.5078 0.3227 -13.6169 -9.64066 -54.3427 -8.72072 -0.52517 1.08377 -95.9412 -49.142 70.1657 -28.2165 10.0442 10.4168 9.14264 14.2283 -41.5645 12.9748 1.30673 5.99909 1.03555 -0.240644 4.0337 -1.22158 -0.840102 -0.642194 
